<?xml version="1.0" encoding="UTF-8"?>
<svg xmlns="http://www.w3.org/2000/svg" viewBox="0 0 370 470" width="370" height="470">
  <defs>
    <linearGradient id="bg" x1="0%" y1="0%" x2="100%" y2="100%">
      <stop offset="0%" style="stop-color:#1a365d"/>
      <stop offset="100%" style="stop-color:#2c5282"/>
    </linearGradient>
    <linearGradient id="accent" x1="0%" y1="0%" x2="0%" y2="100%">
      <stop offset="0%" style="stop-color:#63b3ed"/>
      <stop offset="100%" style="stop-color:#4299e1"/>
    </linearGradient>
    <filter id="shadow" x="-20%" y="-20%" width="140%" height="140%">
      <feDropShadow dx="0" dy="2" stdDeviation="3" flood-opacity="0.3"/>
    </filter>
  </defs>
  <rect width="370" height="470" fill="url(#bg)"/>
  <rect x="0" y="0" width="370" height="6" fill="url(#accent)"/>
  <g opacity="0.25" stroke="#90cdf4" stroke-width="1.5" fill="none">
    <rect x="50" y="85" width="42" height="28" rx="4"/>
    <rect x="165" y="85" width="42" height="28" rx="4"/>
    <rect x="278" y="85" width="42" height="28" rx="4"/>
    <path d="M92 99 L158 99 M207 99 L273 99" stroke-dasharray="4 4"/>
    <circle cx="185" cy="185" r="35"/>
    <circle cx="120" cy="250" r="22"/>
    <circle cx="250" cy="250" r="22"/>
    <path d="M185 150 L165 228 M185 220 L205 228"/>
  </g>
  <text x="185" y="320" text-anchor="middle" fill="#fff" font-family="Noto Sans CJK SC, Noto Sans CJK TC, sans-serif" font-size="36" font-weight="bold" filter="url(#shadow)">&#32534;&#35793;&#22120;&#65306;&#21407;&#29702;&#19982;&#23454;&#29616;</text>
  <text x="185" y="358" text-anchor="middle" fill="#90cdf4" font-family="sans-serif" font-size="14" letter-spacing="1">Compiler: Principles and Implementation</text>
  <line x1="100" y1="378" x2="270" y2="378" stroke="url(#accent)" stroke-width="2"/>
  <text x="185" y="410" text-anchor="middle" fill="#e2e8f0" font-family="Noto Sans CJK SC, Noto Sans CJK TC, sans-serif" font-size="22">&#21608;&#33635;&#21326;&#32;&#33879;</text>
  <rect x="0" y="464" width="370" height="6" fill="url(#accent)"/>
</svg>
